PathFileType	4	(X/Y/Z)	C:\Users\Basilio\Documents\Thesis Gigler\squatting_fais\c3dfiles\075\SLS_front_pre1\markers_experimental.trc
DataRate	CameraRate	NumFrames	NumMarkers	Units	OrigDataRate	OrigDataStartFrame	OrigNumFrames
200.000000	200.000000	4	61	mm	200.000000	936	1249
Frame#	Time	FHD			LBHD			C7			T10			CLAV			LSHO			LUUPA			LMUPA			LDUPA			LLEP			LMEP			LUL			LRFIN			RSHO			RUPA1			RMUPA			RDUPA			RLEP			RMEP			RRAD			RUL			RUFIN			LASI			RASI			USACR			LSACR			RSACR			LTHI1			LTHI2			LTHI3			LTHI4			LLFC			LMFC			LTIB1			LTIB2			LTIB3			LTIB4			LLMAL			LMMAL			LHEE			LMT1			LMT2			LMT5			RTHI			RTHI2			RTHI3			RTHI4			RLFC			RMFC			RTIB1			RTIB2			RTIB3			RTIB4			RLMAL			RMMAL			RHEE			RMT1			RMT2			RMT5			LRAD			RBHD			
		X1	Y1	Z1	X2	Y2	Z2	X3	Y3	Z3	X4	Y4	Z4	X5	Y5	Z5	X6	Y6	Z6	X7	Y7	Z7	X8	Y8	Z8	X9	Y9	Z9	X10	Y10	Z10	X11	Y11	Z11	X12	Y12	Z12	X13	Y13	Z13	X14	Y14	Z14	X15	Y15	Z15	X16	Y16	Z16	X17	Y17	Z17	X18	Y18	Z18	X19	Y19	Z19	X20	Y20	Z20	X21	Y21	Z21	X22	Y22	Z22	X23	Y23	Z23	X24	Y24	Z24	X25	Y25	Z25	X26	Y26	Z26	X27	Y27	Z27	X28	Y28	Z28	X29	Y29	Z29	X30	Y30	Z30	X31	Y31	Z31	X32	Y32	Z32	X33	Y33	Z33	X34	Y34	Z34	X35	Y35	Z35	X36	Y36	Z36	X37	Y37	Z37	X38	Y38	Z38	X39	Y39	Z39	X40	Y40	Z40	X41	Y41	Z41	X42	Y42	Z42	X43	Y43	Z43	X44	Y44	Z44	X45	Y45	Z45	X46	Y46	Z46	X47	Y47	Z47	X48	Y48	Z48	X49	Y49	Z49	X50	Y50	Z50	X51	Y51	Z51	X52	Y52	Z52	X53	Y53	Z53	X54	Y54	Z54	X55	Y55	Z55	X56	Y56	Z56	X57	Y57	Z57	X58	Y58	Z58	X59	Y59	Z59	X60	Y60	Z60	X61	Y61	Z61	

937	4.68	-295.2897033691407	1727.265991210938	-778.762634277344	-433.5326538085939	1604.656005859375	-853.9661865234377	-464.782196044922	1495.151489257813	-793.2811279296877	-515.9148559570314	1176.554809570313	-782.6185302734377	-328.6054382324219	1427.173828125	-788.0598754882815	-356.4566345214844	1473.740478515625	-922.075134277344	-201.4510498046876	1413.11474609375	-1013.78857421875	-176.421859741211	1431.282592773438	-974.4256591796877	-132.5412902832032	1407.173950195313	-1007.734069824219	-50.77919006347658	1399.192626953125	-994.3630371093752	-65.3025360107422	1326.79296875	-951.3352050781252	186.1495056152344	1428.801147460938	-891.403747558594	190.8704071044922	1453.530395507813	-786.7214965820315	-364.3140869140626	1469.937744140625	-654.2091064453126	-223.5051727294922	1423.30517578125	-543.3833007812501	-191.5123596191407	1437.239135742188	-577.8135986328126	-153.0505065917969	1417.941772460938	-534.6307373046876	-82.20857238769533	1415.998413085938	-540.6246337890626	-71.12180328369142	1339.723999023438	-555.0489501953126	121.4714279174805	1435.245971679688	-730.1183471679689	145.7136688232422	1453.619995117188	-658.6669311523439	192.8279724121094	1475.371704101563	-761.1892700195314	-369.0183105468751	1017.752624511719	-928.2947387695315	-356.5806274414063	991.141784667969	-679.1811523437501	-520.9985351562501	1064.549438476563	-793.8247070312502	-529.3531494140626	1035.924560546875	-823.7867431640627	-523.5349121093751	1030.7353515625	-767.3728637695314	-311.5228576660157	821.067321777344	-1027.445190429688	-238.5218353271485	777.7429809570315	-1032.015014648438	-204.8507537841797	806.1902465820315	-1009.177673339844	-227.4270935058594	718.8446655273439	-1032.921020507813	-178.5356903076172	621.0050659179689	-1031.833618164063	-132.6277923583985	620.7987060546876	-909.954528808594	-80.32178497314455	527.1791992187501	-1005.624389648438	-126.9610366821289	470.7998657226564	-1052.569946289063	-85.34024810791017	477.633514404297	-1035.0771484375	-61.30890274047853	400.4216918945314	-1006.822448730469	-87.80281066894533	240.8271942138672	-1025.780639648438	-60.32020568847658	265.8728332519532	-944.5474243164065	-138.2747039794922	209.389144897461	-978.8111572265627	70.34969329833986	206.3643798828126	-946.9419555664065	75.0297088623047	200.470932006836	-995.9180297851565	37.55947875976563	168.6244506835938	-1040.188842773438	-413.4573974609376	781.3913574218752	-633.7914428710939	-371.8886718750001	730.8944091796876	-639.2021484375001	-340.3270874023438	739.5317382812501	-647.7776489257814	-394.5521545410157	650.0185546875001	-658.2947998046876	-399.0097656250001	499.2014465332032	-702.3421020507814	-356.4444580078126	505.8775024414064	-824.734802246094	-328.9054565429688	363.8802795410157	-773.318542480469	-376.0801391601563	277.9559936523438	-726.9786376953126	-335.6837158203126	278.9631042480469	-754.8609619140626	-341.0596008300782	236.1703186035157	-795.671325683594	-398.7731933593751	107.5475845336914	-773.2979736328127	-368.2539367675782	137.7564239501953	-851.0933837890627	-448.0867309570314	90.61267852783205	-836.9148559570315	-243.8526916503907	55.49544143676759	-824.5132446289065	-248.0234375000001	56.37396240234376	-782.0101318359377	-290.4984130859376	34.9857406616211	-734.8022460937501	nan	nan	nan	-401.3741760253907	1639.532958984375	-697.9986572265626	
938	4.685	-295.3291320800782	1727.19970703125	-778.600036621094	-433.4069824218751	1604.485473632813	-853.995544433594	-464.5699768066407	1495.069213867188	-793.4234619140627	-515.7565307617189	1176.419555664063	-782.7541503906252	-328.5165405273438	1427.156982421875	-788.1574707031252	-356.2721862792969	1473.669677734375	-922.1939697265627	-201.0882720947266	1412.964721679688	-1013.845031738281	-176.2096405029297	1431.156616210938	-974.4697265625002	-132.302490234375	1406.885375976563	-1007.770202636719	-50.20930480957033	1398.973876953125	-994.4832763671877	-65.1345672607422	1326.505493164063	-951.2709960937502	186.3209381103516	1428.546508789063	-891.425720214844	191.6342468261719	1453.057739257813	-786.5332031250002	-364.1587524414063	1469.841674804688	-654.3253784179689	-223.2923583984376	1422.903686523438	-543.5315551757814	-191.3898468017578	1437.03466796875	-577.8978881835939	-152.9527587890625	1417.629638671875	-534.6416625976564	-82.11342620849611	1415.7177734375	-540.6605834960939	-71.06758117675783	1339.4150390625	-555.1291503906251	121.7123031616211	1434.927978515625	-730.0881347656251	145.8975219726563	1453.3388671875	-658.6004638671876	193.0540618896485	1475.086669921875	-761.1535644531251	-369.1473693847657	1017.609985351563	-928.5062255859377	-356.2271728515626	991.1316528320315	-679.4248657226564	-520.8488159179689	1064.45263671875	-793.8345336914065	-529.2769775390626	1035.864624023438	-823.7731933593752	-523.2920532226564	1030.69287109375	-767.3926391601564	-310.7760009765626	820.255065917969	-1027.322998046875	-239.369369506836	777.2192382812502	-1032.232666015625	-205.2956695556641	805.4539184570315	-1009.370422363281	-229.0004577636719	718.2837524414064	-1033.4384765625	-179.2375640869141	620.1702880859376	-1031.959350585938	-133.267318725586	620.0561523437501	-910.103942871094	-81.1544647216797	526.2312011718751	-1005.646118164063	-128.1045989990235	469.528289794922	-1052.513549804688	-86.64761352539064	476.6338195800782	-1035.2265625	-62.65239715576173	399.6528625488282	-1007.113403320313	-89.39833831787111	239.9610595703126	-1025.679565429688	-61.64940261840822	265.0730895996094	-944.5249023437502	-139.4453125	208.5223388671876	-978.409362792969	68.80935668945314	204.9736785888672	-946.909118652344	73.65539550781251	198.9241485595704	-995.470886230469	36.16527557373048	167.3911285400391	-1040.186767578125	-413.0961914062501	781.3603515625002	-633.8148803710939	-371.4410705566407	730.8878784179689	-639.2261962890626	-339.9031982421876	739.5888671875001	-647.9115600585939	-394.2329101562501	650.0298461914064	-658.3066406250001	-398.7237243652345	499.205780029297	-702.2872924804689	-356.3302917480469	505.8352355957032	-824.7051391601565	-328.8671264648438	363.8699951171876	-773.463073730469	-375.8775634765626	277.9672546386719	-726.9414672851564	-335.5646362304688	278.8597106933594	-754.8806152343751	-340.9606933593751	236.1383819580079	-795.6539306640627	-398.7849731445314	107.5353393554688	-773.2830810546877	-368.2459106445313	137.8147735595703	-851.1958007812502	-448.1172790527345	90.6229934692383	-836.8941040039065	-243.8373413085938	55.53357315063478	-824.4985351562502	-248.1147766113282	56.36461639404298	-782.134948730469	-290.5094299316407	34.92973709106446	-734.8200073242189	nan	nan	nan	-401.3617553710939	1639.386596679688	-698.0169067382814	
939	4.69	-296.1047363281251	1727.982666015625	-778.9852294921877	-433.2730712890626	1604.319946289063	-853.9725341796877	-464.4149780273439	1495.009399414063	-793.5935668945315	-515.5891113281251	1176.355590820313	-782.869323730469	-328.3494567871094	1427.090698242188	-788.2744140625002	-356.0751037597657	1473.626586914063	-922.3168945312502	-200.9014282226563	1412.844116210938	-1013.905822753906	-177.1766204833985	1431.363647460938	-974.8516845703127	-132.0312957763672	1406.634399414063	-1007.801330566406	-50.01982879638673	1398.890747070313	-994.587829589844	-64.92965698242189	1326.2998046875	-951.227966308594	186.4396667480469	1428.26708984375	-891.4091796875002	191.8114013671875	1452.735107421875	-786.3799438476565	-363.8919677734376	1469.749389648438	-654.3206176757814	-223.2773132324219	1422.586303710938	-543.6173095703126	-191.2611389160157	1436.832397460938	-577.9176635742189	-152.889144897461	1417.277465820313	-534.7237548828126	-82.01104736328126	1415.392578125	-540.7533569335939	-71.04266357421876	1338.97705078125	-555.2708129882814	121.8965148925782	1434.63330078125	-730.0228271484376	146.1091918945313	1452.946655273438	-658.5383911132814	193.2372283935547	1474.695922851563	-761.1647338867189	-369.1707153320313	1017.423583984375	-928.723571777344	-355.8726196289063	991.1081542968752	-679.6607055664064	-520.6702880859376	1064.39794921875	-793.9231567382815	-529.1734619140626	1035.774291992188	-823.7891235351565	-522.9553222656251	1030.690551757813	-767.4110107421876	-311.5949707031251	819.9768676757815	-1027.626342773438	-239.9686584472657	776.3885498046877	-1032.499755859375	-205.5200195312501	804.7120361328127	-1009.612060546875	-228.7349090576172	717.6369018554689	-1033.245239257813	-179.9368743896485	619.5538940429689	-1032.124633789063	-133.9458465576172	619.3781127929689	-910.3254394531252	-82.43334960937501	525.4485473632814	-1006.304443359375	-129.1901397705078	468.8237915039064	-1052.767944335938	-87.44639587402345	475.8175354003907	-1035.1884765625	-63.30239868164064	398.6055603027345	-1006.862976074219	-90.63351440429689	238.9166259765626	-1025.47265625	-62.80102539062501	264.4413452148438	-944.098815917969	-141.168197631836	207.8812408447266	-978.3387451171877	67.43525695800783	204.1478729248047	-946.9140625000002	72.09863281250001	197.9595642089844	-995.528015136719	34.45534896850587	166.1729278564453	-1039.938842773438	-412.689666748047	781.4283447265627	-633.8577270507814	-371.0614624023438	730.8297119140626	-639.2846679687501	-339.6099548339844	739.5197753906251	-648.0235595703126	-393.8350219726564	649.9529418945314	-658.1304931640626	-398.4191284179689	499.1853332519532	-702.2319335937501	-355.1999816894532	505.637664794922	-824.224060058594	-330.5032653808594	363.8805541992188	-774.870056152344	-375.7336730957032	277.9463500976563	-726.9430541992189	-335.4302673339844	278.8386535644532	-754.8770751953126	-340.9373168945313	236.1376190185547	-795.7210693359377	-398.7716369628907	107.5379028320313	-773.281921386719	-368.2669982910157	137.8485412597657	-851.2261962890627	-448.100311279297	90.59802246093751	-836.8460693359377	-243.8731689453126	55.45704650878908	-824.1383056640627	-248.1233062744141	56.35443115234376	-782.1000976562502	-290.5098266601563	34.96385574340821	-734.8228759765626	nan	nan	nan	-401.3431396484376	1639.051879882813	-698.0704345703126	
940	4.695	-295.4179382324219	1727.24755859375	-778.5403442382815	-433.0693359375001	1604.453857421875	-853.9930419921877	-464.2462158203126	1494.931640625	-793.7510986328127	-515.4187011718751	1176.302001953125	-783.0222167968752	-328.1746215820313	1427.099609375	-788.3918457031252	-355.8884582519532	1473.542724609375	-922.4362792968752	-200.3821716308594	1412.557006835938	-1013.892395019531	-176.9355010986328	1431.24462890625	-974.9749145507815	-131.8120880126953	1406.435424804688	-1007.893737792969	-49.82828903198244	1398.6982421875	-994.714294433594	-64.80354309082033	1326.071899414063	-951.341735839844	186.5933685302735	1428.05126953125	-891.3056640625002	191.972640991211	1452.370483398438	-786.2236938476565	-363.7983398437501	1469.6220703125	-654.4083251953126	-223.178207397461	1422.549926757813	-543.4812011718751	-191.1112213134766	1436.56787109375	-577.9458618164064	-152.7604064941407	1416.945068359375	-534.7034912109376	-81.97375488281251	1415.0791015625	-540.8508911132814	-70.94516754150392	1338.718872070313	-555.3763427734376	122.0233154296875	1434.278076171875	-730.1354370117189	146.2785339355469	1452.527954101563	-658.4816894531251	193.4190826416016	1474.386474609375	-761.0805664062501	-369.3241271972657	1017.244567871094	-929.000671386719	-355.6214294433594	991.1152954101565	-679.8812255859376	-520.4989624023439	1064.371704101563	-793.903015136719	-529.0917358398439	1035.699829101563	-823.7510986328127	-522.8048095703126	1030.695556640625	-767.4017944335939	-312.1653747558594	819.468933105469	-1027.789916992188	-240.314926147461	775.9344482421877	-1032.955200195313	-206.0856018066407	804.1628417968752	-1009.976196289063	-229.5409088134766	717.0029907226564	-1033.439331054688	-180.55419921875	618.7366333007814	-1032.176391601563	-134.3947906494141	618.7853393554689	-910.610778808594	-82.87393188476564	524.4494628906251	-1006.122314453125	-130.1948394775391	467.9845275878907	-1052.717407226563	-88.43975067138673	474.9078369140626	-1035.456909179688	-64.79707336425783	397.6193847656251	-1007.060791015625	-92.08111572265626	238.0721130371094	-1025.465698242188	-64.13391113281251	263.5490722656251	-944.032165527344	-142.5315093994141	207.1004028320313	-978.1088867187502	66.15320587158205	203.2203979492188	-946.8790283203127	70.26952362060548	196.7151184082032	-995.6031494140627	33.15583801269532	165.1429138183594	-1039.792114257813	-412.326873779297	781.4534912109377	-633.8635864257814	-370.6413574218751	730.8944091796876	-639.2978515625001	-339.2533569335938	739.5704956054689	-648.1010131835939	-393.4586181640626	650.0070190429689	-658.1256713867189	-398.0890197753907	499.1870117187501	-702.1634521484376	-354.9823303222657	505.6194763183595	-824.2401123046877	-330.3719482421876	363.9082946777344	-774.914001464844	-375.5963134765626	277.9151916503907	-726.9580688476564	-335.9757385253907	279.0074768066407	-755.3930664062501	-340.9685058593751	236.0950622558594	-795.858093261719	-398.838348388672	107.4393157958985	-773.278747558594	-368.3259887695313	137.7570953369141	-851.0633544921877	-448.0718994140626	90.55239868164064	-836.8649902343752	-243.8853454589844	55.53937149047853	-824.5164184570315	-248.1054077148438	56.3583221435547	-782.1286621093752	-290.5103149414063	35.00178527832032	-734.7911987304689	nan	nan	nan	-401.3057556152345	1638.991088867188	-698.1773681640626	
